<?xml version="1.0" standalone="no"?>
<!DOCTYPE svg PUBLIC "-//W3C//DTD SVG 20010904//EN"
 "http://www.w3.org/TR/2001/REC-SVG-20010904/DTD/svg10.dtd">
<svg version="1.0" xmlns="http://www.w3.org/2000/svg"
 width="256.000000pt" height="256.000000pt" viewBox="0 0 256.000000 256.000000"
 preserveAspectRatio="xMidYMid meet">
<metadata>
Created by potrace 1.14, written by Peter Selinger 2001-2017
</metadata>
<g transform="translate(0.000000,256.000000) scale(0.100000,-0.100000)"
fill="#000000" stroke="none">
<path d="M675 2546 c-90 -29 -140 -70 -186 -154 l-26 -47 -170 -2 c-186 -1
-217 -9 -250 -60 -17 -25 -18 -95 -20 -1104 -2 -1012 -1 -1079 16 -1110 10
-18 33 -41 52 -51 32 -17 85 -18 1057 -18 914 0 1028 2 1057 16 37 17 63 50
68 86 4 22 9 23 108 28 57 3 110 9 117 13 26 17 44 68 37 108 -4 21 -8 49 -10
62 -1 12 -10 76 -20 142 -9 66 -18 129 -20 140 -1 11 -5 38 -9 60 -4 22 -8 56
-10 75 -2 19 -11 85 -20 145 -22 150 -24 163 -31 220 -4 28 -8 57 -10 65 -2 8
-7 35 -10 60 -3 25 -12 88 -20 140 -8 52 -17 118 -20 145 -4 28 -8 57 -10 65
-2 8 -7 42 -10 75 -4 33 -8 67 -10 75 -2 8 -7 35 -10 60 -9 76 -27 184 -32
200 -3 8 -6 74 -6 145 -3 204 -19 218 -252 218 l-151 0 -18 42 c-9 24 -34 59
-54 80 -152 153 -414 107 -495 -87 l-15 -35 -119 0 -119 -1 -29 55 c-65 124
-221 191 -350 149z m1016 -101 c24 -13 62 -54 82 -91 5 -8 -47 -12 -188 -11
-107 0 -195 2 -195 4 0 17 38 62 70 86 66 47 154 51 231 12z m-837 4 c24 -11
55 -34 67 -51 13 -17 29 -37 36 -43 9 -9 -35 -12 -192 -12 l-204 0 14 26 c47
90 178 128 279 80z"/>
</g>
</svg>
